# xmcd
#
# Track frame offsets:
# 150
# 9599
# 25121
# 38768
# 56616
# 69366
# 81591
# 94715
# 107314
# 118410
#
# Disc length: 1761 seconds
#
#
# Revision: 0
# Processed by: cddbd v1.4PL0 Copyright (c) Steve Scherf et al.
# Submitted via: HACP 1.12
#
DISCID=7906df0a
DTITLE=Robin Right - All Right!
DYEAR=1900
DGENRE=
TTITLE0=Right Now Is The Right Time
TTITLE1=If We're Not Goin' Anywhere
TTITLE2=Burnin' Blue
TTITLE3=To Make A Long Story Short
TTITLE4=This Old Fiddle
TTITLE5=I Like A Man To Drive
TTITLE6=Cross My Broken Heart
TTITLE7=It Ain't Necessarily Love
TTITLE8=If You Want My Love
TTITLE9=Pull Away From Me
EXTD=
EXTT0=
EXTT1=
EXTT2=
EXTT3=
EXTT4=
EXTT5=
EXTT6=
EXTT7=
EXTT8=
EXTT9=
PLAYORDER=
